<svg width="744" height="146" viewBox="0 0 744 146" fill="none" xmlns="http://www.w3.org/2000/svg">
<path d="M49.25 2.81818H56.2955L49.9318 41.3409C49.2689 45.3182 47.7443 48.8693 45.358 51.9943C42.9716 55.1004 39.9318 57.553 36.2386 59.3523C32.5455 61.1326 28.4167 62.0227 23.8523 62.0227C19.2879 62.0227 15.4621 61.1326 12.375 59.3523C9.28788 57.553 7.07197 55.1004 5.72727 51.9943C4.38258 48.8693 4.04167 45.3182 4.70455 41.3409L11.0682 2.81818H18.1136L11.8068 40.7727C11.3523 43.6136 11.5701 46.142 12.4602 48.358C13.3504 50.5549 14.8466 52.2879 16.9489 53.5568C19.0701 54.8068 21.75 55.4318 24.9886 55.4318C28.2273 55.4318 31.1155 54.8068 33.6534 53.5568C36.1913 52.2879 38.2557 50.5549 39.8466 48.358C41.4564 46.142 42.4886 43.6136 42.9432 40.7727L49.25 2.81818ZM76.2105 2.81818L66.5514 61H59.506L69.1651 2.81818H76.2105ZM148.619 2.81818H155.664L149.301 41.3409C148.638 45.3182 147.113 48.8693 144.727 51.9943C142.34 55.1004 139.301 57.553 135.607 59.3523C131.914 61.1326 127.785 62.0227 123.221 62.0227C118.657 62.0227 114.831 61.1326 111.744 59.3523C108.657 57.553 106.441 55.1004 105.096 51.9943C103.751 48.8693 103.41 45.3182 104.073 41.3409L110.437 2.81818H117.482L111.176 40.7727C110.721 43.6136 110.939 46.142 111.829 48.358C112.719 50.5549 114.215 52.2879 116.318 53.5568C118.439 54.8068 121.119 55.4318 124.357 55.4318C127.596 55.4318 130.484 54.8068 133.022 53.5568C135.56 52.2879 137.624 50.5549 139.215 48.358C140.825 46.142 141.857 43.6136 142.312 40.7727L148.619 2.81818ZM171.943 2.81818L182.966 27.0227H183.42L202.397 2.81818H210.693L187.625 31.9091L201.034 61H192.738L181.716 37.25H181.261L162.284 61H153.988L177.625 31.9091L163.647 2.81818H171.943ZM245.814 61.9091C242.159 61.9091 239.091 60.9905 236.61 59.1534C234.129 57.2973 232.377 54.6837 231.354 51.3125C230.35 47.9223 230.227 43.9167 230.985 39.2955C231.761 34.7121 233.21 30.7348 235.331 27.3636C237.471 23.9924 240.095 21.3883 243.201 19.5511C246.307 17.714 249.697 16.7955 253.371 16.7955C256.212 16.7955 258.38 17.2689 259.877 18.2159C261.392 19.1439 262.49 20.2045 263.172 21.3977C263.854 22.572 264.375 23.5379 264.735 24.2955H265.303L268.882 2.81818H275.587L265.928 61H259.451L260.587 54.2955H259.791C259.166 55.0909 258.295 56.0947 257.178 57.3068C256.06 58.5 254.583 59.5701 252.746 60.517C250.928 61.4451 248.617 61.9091 245.814 61.9091ZM247.462 55.8864C250.151 55.8864 252.557 55.1856 254.678 53.7841C256.818 52.3636 258.598 50.4034 260.019 47.9034C261.439 45.3845 262.424 42.4773 262.973 39.1818C263.523 35.9242 263.504 33.0739 262.916 30.6307C262.329 28.1686 261.202 26.2557 259.536 24.892C257.869 23.5095 255.663 22.8182 252.916 22.8182C250.095 22.8182 247.642 23.5473 245.559 25.0057C243.475 26.4451 241.78 28.4053 240.473 30.8864C239.166 33.3485 238.257 36.1136 237.746 39.1818C237.235 42.2879 237.225 45.1098 237.718 47.6477C238.21 50.1667 239.252 52.1742 240.843 53.6705C242.452 55.1477 244.659 55.8864 247.462 55.8864ZM296.063 61.9091C291.877 61.9091 288.421 60.9811 285.694 59.125C282.966 57.25 281.063 54.6364 279.984 51.2841C278.904 47.9129 278.734 43.9924 279.472 39.5227C280.211 35.053 281.679 31.1136 283.876 27.7045C286.073 24.2765 288.809 21.6061 292.086 19.6932C295.362 17.7614 298.961 16.7955 302.881 16.7955C305.154 16.7955 307.341 17.1742 309.444 17.9318C311.546 18.6894 313.364 19.9205 314.898 21.625C316.432 23.3106 317.502 25.5455 318.109 28.3295C318.715 31.1136 318.677 34.5417 317.995 38.6136L317.54 41.4545H283.904L284.813 35.6591H311.631C312.067 33.197 311.953 31 311.29 29.0682C310.646 27.1364 309.52 25.6117 307.91 24.4943C306.319 23.3769 304.302 22.8182 301.859 22.8182C299.34 22.8182 296.991 23.5 294.813 24.8636C292.635 26.2083 290.817 27.9129 289.359 29.9773C287.9 32.0227 286.991 34.1061 286.631 36.2273L285.836 41.2273C285.268 44.8447 285.353 47.7235 286.091 49.8636C286.849 52.0038 288.165 53.5473 290.04 54.4943C291.915 55.4223 294.264 55.8864 297.086 55.8864C298.885 55.8864 300.542 55.6402 302.057 55.1477C303.573 54.6364 304.927 53.8788 306.12 52.875C307.313 51.8523 308.317 50.5833 309.131 49.0682L315.268 50.8864C314.226 53.0833 312.758 55.0152 310.864 56.6818C308.989 58.3295 306.792 59.6174 304.273 60.5455C301.773 61.4545 299.037 61.9091 296.063 61.9091ZM359.991 27.1364L353.627 28.8409C353.4 27.8182 353.002 26.8333 352.434 25.8864C351.885 24.9205 351.033 24.1345 349.877 23.5284C348.741 22.9034 347.188 22.5909 345.218 22.5909C342.548 22.5909 340.228 23.2064 338.258 24.4375C336.288 25.6496 335.161 27.1932 334.877 29.0682C334.593 30.7159 334.972 32.0322 336.014 33.017C337.055 34.0019 338.798 34.8068 341.241 35.4318L347.491 37.0227C351.241 37.9886 353.911 39.4375 355.502 41.3693C357.112 43.2822 357.661 45.7727 357.15 48.8409C356.733 51.3409 355.644 53.5758 353.883 55.5455C352.122 57.5152 349.868 59.0682 347.122 60.2045C344.375 61.3409 341.317 61.9091 337.945 61.9091C333.457 61.9091 329.915 60.9432 327.32 59.0114C324.726 57.0606 323.343 54.2386 323.173 50.5455L329.877 48.9545C330.048 51.2841 330.881 53.0455 332.377 54.2386C333.892 55.4129 336.014 56 338.741 56C341.866 56 344.47 55.3371 346.553 54.0114C348.637 52.6667 349.82 51.0568 350.105 49.1818C350.389 47.6477 350.086 46.3693 349.195 45.3466C348.324 44.3239 346.809 43.5568 344.65 43.0455L337.718 41.3409C333.855 40.375 331.146 38.8977 329.593 36.9091C328.059 34.9205 327.548 32.4205 328.059 29.4091C328.476 26.947 329.536 24.7689 331.241 22.875C332.964 20.9811 335.123 19.4943 337.718 18.4148C340.332 17.3352 343.173 16.7955 346.241 16.7955C350.559 16.7955 353.788 17.7424 355.928 19.6364C358.069 21.5114 359.423 24.0114 359.991 27.1364ZM363.997 61L371.27 17.3636H377.974L370.701 61H363.997ZM376.667 9.97727C375.361 9.97727 374.234 9.5322 373.287 8.64205C372.359 7.75189 371.895 6.68182 371.895 5.43182C371.895 4.18182 372.359 3.11174 373.287 2.22159C374.234 1.33144 375.361 0.88636 376.667 0.88636C377.974 0.88636 379.092 1.33144 380.02 2.22159C380.967 3.11174 381.44 4.18182 381.44 5.43182C381.44 6.68182 380.967 7.75189 380.02 8.64205C379.092 9.5322 377.974 9.97727 376.667 9.97727ZM396.668 78.2727C393.41 78.2727 390.683 77.8561 388.486 77.0227C386.289 76.2083 384.527 75.1288 383.202 73.7841C381.876 72.4583 380.872 71.0379 380.19 69.5227L386.213 65.7727C386.668 66.5682 387.255 67.4773 387.974 68.5C388.694 69.5417 389.783 70.4413 391.241 71.1989C392.719 71.9754 394.793 72.3636 397.463 72.3636C400.967 72.3636 404.035 71.5114 406.668 69.8068C409.3 68.1023 410.929 65.4318 411.554 61.7955L412.918 52.9318H412.349C411.743 53.7273 410.901 54.7121 409.821 55.8864C408.741 57.0417 407.293 58.0739 405.474 58.983C403.656 59.8731 401.327 60.3182 398.486 60.3182C394.944 60.3182 391.914 59.4848 389.395 57.8182C386.876 56.1515 385.067 53.7273 383.969 50.5455C382.889 47.3636 382.728 43.5 383.486 38.9545C384.224 34.4848 385.645 30.5928 387.747 27.2784C389.868 23.9451 392.482 21.3693 395.588 19.5511C398.694 17.714 402.084 16.7955 405.759 16.7955C408.599 16.7955 410.777 17.2689 412.293 18.2159C413.827 19.1439 414.944 20.2045 415.645 21.3977C416.346 22.572 416.876 23.5379 417.236 24.2955H417.918L419.054 17.3636H425.531L418.145 62.25C417.52 66 416.166 69.0492 414.082 71.3977C411.999 73.7652 409.442 75.4981 406.412 76.5966C403.382 77.714 400.134 78.2727 396.668 78.2727ZM400.19 54.2955C402.861 54.2955 405.238 53.6799 407.321 52.4489C409.423 51.2178 411.166 49.447 412.548 47.1364C413.931 44.8258 414.887 42.0606 415.418 38.8409C415.948 35.697 415.91 32.9223 415.304 30.517C414.698 28.1117 413.552 26.2273 411.866 24.8636C410.2 23.5 408.012 22.8182 405.304 22.8182C402.444 22.8182 399.973 23.5379 397.889 24.9773C395.825 26.4167 394.149 28.3485 392.861 30.7727C391.573 33.197 390.683 35.8864 390.19 38.8409C389.698 41.8712 389.717 44.5511 390.247 46.8807C390.777 49.1913 391.857 51.0095 393.486 52.3352C395.134 53.642 397.368 54.2955 400.19 54.2955ZM440.354 34.75L436.036 61H429.331L436.604 17.3636H443.081L441.945 24.1818H442.513C443.877 21.9659 445.723 20.1856 448.053 18.8409C450.382 17.4773 453.195 16.7955 456.49 16.7955C459.407 16.7955 461.869 17.4015 463.877 18.6136C465.903 19.8068 467.333 21.625 468.166 24.0682C469.019 26.4924 469.142 29.5606 468.536 33.2727L463.877 61H457.172L461.718 33.7273C462.286 30.3182 461.841 27.6477 460.382 25.7159C458.943 23.7841 456.661 22.8182 453.536 22.8182C451.377 22.8182 449.379 23.2822 447.541 24.2102C445.723 25.1383 444.18 26.4924 442.911 28.2727C441.661 30.053 440.809 32.2121 440.354 34.75ZM493.11 61.9091C488.924 61.9091 485.468 60.9811 482.741 59.125C480.013 57.25 478.11 54.6364 477.03 51.2841C475.951 47.9129 475.78 43.9924 476.519 39.5227C477.258 35.053 478.725 31.1136 480.922 27.7045C483.119 24.2765 485.856 21.6061 489.133 19.6932C492.409 17.7614 496.008 16.7955 499.928 16.7955C502.201 16.7955 504.388 17.1742 506.491 17.9318C508.593 18.6894 510.411 19.9205 511.945 21.625C513.479 23.3106 514.549 25.5455 515.155 28.3295C515.761 31.1136 515.724 34.5417 515.042 38.6136L514.587 41.4545H480.951L481.86 35.6591H508.678C509.114 33.197 509 31 508.337 29.0682C507.693 27.1364 506.566 25.6117 504.957 24.4943C503.366 23.3769 501.349 22.8182 498.905 22.8182C496.386 22.8182 494.038 23.5 491.86 24.8636C489.682 26.2083 487.864 27.9129 486.405 29.9773C484.947 32.0227 484.038 34.1061 483.678 36.2273L482.883 41.2273C482.314 44.8447 482.4 47.7235 483.138 49.8636C483.896 52.0038 485.212 53.5473 487.087 54.4943C488.962 55.4223 491.311 55.8864 494.133 55.8864C495.932 55.8864 497.589 55.6402 499.104 55.1477C500.619 54.6364 501.974 53.8788 503.167 52.875C504.36 51.8523 505.364 50.5833 506.178 49.0682L512.314 50.8864C511.273 53.0833 509.805 55.0152 507.911 56.6818C506.036 58.3295 503.839 59.6174 501.32 60.5455C498.82 61.4545 496.083 61.9091 493.11 61.9091ZM520.447 61L527.72 17.3636H534.197L533.061 23.9545H533.515C534.651 21.7955 536.384 20.0436 538.714 18.6989C541.043 17.3542 543.515 16.6818 546.129 16.6818C546.64 16.6818 547.256 16.6913 547.975 16.7102C548.695 16.7102 549.254 16.7386 549.651 16.7955L548.515 23.6136C548.288 23.5568 547.776 23.4716 546.981 23.358C546.186 23.2254 545.333 23.1591 544.424 23.1591C542.303 23.1591 540.343 23.6042 538.543 24.4943C536.744 25.3655 535.239 26.5777 534.026 28.1307C532.814 29.6648 532.038 31.4167 531.697 33.3864L527.151 61H520.447ZM20.7273 145.909C16.5606 145.909 12.9716 145.17 9.96023 143.693C6.94886 142.216 4.63826 140.237 3.02841 137.756C1.41856 135.275 0.613637 132.538 0.613637 129.545C0.613637 127.367 1.0303 125.445 1.86364 123.778C2.69697 122.093 3.86174 120.549 5.35795 119.148C6.85417 117.746 8.60606 116.364 10.6136 115L23.7955 106.818C25.1212 105.985 26.0208 105.123 26.4943 104.233C26.9678 103.324 27.2045 102.519 27.2045 101.818C27.2045 100.89 26.8636 100.066 26.1818 99.3466C25.5 98.6269 24.4394 98.2765 23 98.2955C22.1098 98.2955 21.3428 98.4659 20.6989 98.8068C20.0549 99.1288 19.553 99.5833 19.1932 100.17C18.8523 100.758 18.6818 101.458 18.6818 102.273C18.6818 103.39 19.0038 104.536 19.6477 105.71C20.2917 106.866 21.1723 108.116 22.2898 109.46C23.4072 110.805 24.6667 112.311 26.0682 113.977L54.25 145H38.5682L14.9318 120C13.7765 118.769 12.4981 117.263 11.0966 115.483C9.69508 113.684 8.48295 111.657 7.46023 109.403C6.45644 107.15 5.95455 104.697 5.95455 102.045C5.95455 99.0909 6.66477 96.392 8.08523 93.9489C9.50568 91.5057 11.4943 89.5549 14.0511 88.0966C16.608 86.6383 19.5909 85.9091 23 85.9091C26.2576 85.9091 29.0606 86.5814 31.4091 87.9261C33.7765 89.2708 35.5947 91.0606 36.8636 93.2955C38.1515 95.5303 38.7955 97.9924 38.7955 100.682C38.7955 103.39 38.1231 105.919 36.7784 108.267C35.4527 110.616 33.5492 112.67 31.0682 114.432L19.0227 122.955C18.0947 123.598 17.2898 124.337 16.608 125.17C15.9451 126.004 15.6136 127.083 15.6136 128.409C15.6136 129.508 15.8693 130.445 16.3807 131.222C16.892 131.998 17.6117 132.595 18.5398 133.011C19.4867 133.428 20.5947 133.636 21.8636 133.636C23.7955 133.636 25.7273 133.172 27.6591 132.244C29.6098 131.297 31.3902 129.981 33 128.295C34.6098 126.591 35.8977 124.583 36.8636 122.273C37.8485 119.943 38.3409 117.405 38.3409 114.659H50.7273C50.7273 118.03 50.3769 121.278 49.6761 124.403C48.9754 127.528 47.8485 130.388 46.2955 132.983C44.7424 135.578 42.697 137.765 40.1591 139.545C39.3636 139.943 38.5871 140.322 37.8295 140.682C37.072 141.042 36.2955 141.42 35.5 141.818C33.1705 143.314 30.7367 144.375 28.1989 145C25.661 145.606 23.1705 145.909 20.7273 145.909ZM85.8415 145L68.6824 86.8182H86.296L94.2506 122.614H94.7051L104.137 86.8182H118.001L127.432 122.727H127.887L135.841 86.8182H153.455L136.296 145H121.182L111.296 112.5H110.841L100.955 145H85.8415ZM157.369 145V86.8182H199.301V99.5455H173.164V109.545H197.141V122.273H173.164V132.273H199.187V145H157.369ZM205.934 145V86.8182H231.162C235.593 86.8182 239.315 87.4148 242.326 88.608C245.357 89.8011 247.639 91.4867 249.173 93.6648C250.726 95.8428 251.503 98.4091 251.503 101.364C251.503 103.504 251.029 105.455 250.082 107.216C249.154 108.977 247.847 110.455 246.162 111.648C244.476 112.822 242.506 113.636 240.253 114.091V114.659C242.753 114.754 245.025 115.388 247.071 116.562C249.116 117.718 250.745 119.318 251.957 121.364C253.169 123.39 253.775 125.777 253.775 128.523C253.775 131.705 252.942 134.536 251.275 137.017C249.628 139.498 247.279 141.449 244.23 142.869C241.181 144.29 237.544 145 233.321 145H205.934ZM221.73 132.386H229.116C231.768 132.386 233.756 131.894 235.082 130.909C236.408 129.905 237.071 128.428 237.071 126.477C237.071 125.114 236.758 123.958 236.133 123.011C235.508 122.064 234.618 121.345 233.463 120.852C232.326 120.36 230.953 120.114 229.343 120.114H221.73V132.386ZM221.73 110.341H228.207C229.59 110.341 230.811 110.123 231.872 109.688C232.932 109.252 233.756 108.627 234.343 107.812C234.95 106.979 235.253 105.966 235.253 104.773C235.253 102.973 234.609 101.6 233.321 100.653C232.033 99.6875 230.404 99.2045 228.434 99.2045H221.73V110.341ZM295.296 145H272.909V86.8182H295.068C301.053 86.8182 306.224 87.983 310.58 90.3125C314.955 92.6231 318.326 95.9564 320.693 100.312C323.08 104.65 324.273 109.848 324.273 115.909C324.273 121.97 323.089 127.178 320.722 131.534C318.354 135.871 315.002 139.205 310.665 141.534C306.328 143.845 301.205 145 295.296 145ZM288.705 131.591H294.728C297.606 131.591 300.059 131.127 302.086 130.199C304.131 129.271 305.684 127.67 306.745 125.398C307.824 123.125 308.364 119.962 308.364 115.909C308.364 111.856 307.815 108.693 306.716 106.42C305.637 104.148 304.046 102.547 301.943 101.619C299.86 100.691 297.303 100.227 294.273 100.227H288.705V131.591ZM330.381 145V86.8182H372.313V99.5455H346.177V109.545H370.154V122.273H346.177V132.273H372.199V145H330.381ZM394.856 86.8182L406.788 127.841H407.242L419.174 86.8182H437.015L417.811 145H396.22L377.015 86.8182H394.856ZM441.419 145V86.8182H483.351V99.5455H457.214V109.545H481.191V122.273H457.214V132.273H483.237V145H441.419ZM489.984 145V86.8182H505.78V132.273H529.303V145H489.984ZM588.586 115.909C588.586 122.386 587.326 127.85 584.807 132.301C582.288 136.733 578.889 140.095 574.608 142.386C570.328 144.659 565.555 145.795 560.29 145.795C554.987 145.795 550.195 144.65 545.915 142.358C541.654 140.047 538.264 136.676 535.745 132.244C533.245 127.794 531.995 122.348 531.995 115.909C531.995 109.432 533.245 103.977 535.745 99.5455C538.264 95.0947 541.654 91.733 545.915 89.4602C550.195 87.1686 554.987 86.0227 560.29 86.0227C565.555 86.0227 570.328 87.1686 574.608 89.4602C578.889 91.733 582.288 95.0947 584.807 99.5455C587.326 103.977 588.586 109.432 588.586 115.909ZM572.336 115.909C572.336 112.424 571.871 109.489 570.943 107.102C570.034 104.697 568.68 102.879 566.881 101.648C565.101 100.398 562.904 99.7727 560.29 99.7727C557.676 99.7727 555.47 100.398 553.671 101.648C551.89 102.879 550.536 104.697 549.608 107.102C548.699 109.489 548.245 112.424 548.245 115.909C548.245 119.394 548.699 122.339 549.608 124.744C550.536 127.131 551.89 128.949 553.671 130.199C555.47 131.43 557.676 132.045 560.29 132.045C562.904 132.045 565.101 131.43 566.881 130.199C568.68 128.949 570.034 127.131 570.943 124.744C571.871 122.339 572.336 119.394 572.336 115.909ZM594.694 145V86.8182H619.807C624.126 86.8182 627.904 87.6705 631.143 89.375C634.381 91.0795 636.9 93.4754 638.699 96.5625C640.499 99.6496 641.398 103.258 641.398 107.386C641.398 111.553 640.47 115.161 638.614 118.21C636.777 121.259 634.192 123.608 630.859 125.256C627.544 126.903 623.671 127.727 619.239 127.727H604.239V115.455H616.057C617.913 115.455 619.495 115.133 620.802 114.489C622.127 113.826 623.141 112.888 623.841 111.676C624.561 110.464 624.921 109.034 624.921 107.386C624.921 105.72 624.561 104.299 623.841 103.125C623.141 101.932 622.127 101.023 620.802 100.398C619.495 99.7538 617.913 99.4318 616.057 99.4318H610.489V145H594.694ZM645.994 145V86.8182H687.926V99.5455H661.789V109.545H685.767V122.273H661.789V132.273H687.812V145H645.994ZM694.559 145V86.8182H719.673C723.991 86.8182 727.77 87.6042 731.008 89.1761C734.247 90.7481 736.766 93.0114 738.565 95.9659C740.364 98.9205 741.264 102.462 741.264 106.591C741.264 110.758 740.336 114.271 738.48 117.131C736.643 119.991 734.057 122.15 730.724 123.608C727.41 125.066 723.537 125.795 719.105 125.795H704.105V113.523H715.923C717.779 113.523 719.361 113.295 720.667 112.841C721.993 112.367 723.006 111.619 723.707 110.597C724.427 109.574 724.787 108.239 724.787 106.591C724.787 104.924 724.427 103.57 723.707 102.528C723.006 101.468 721.993 100.691 720.667 100.199C719.361 99.6875 717.779 99.4318 715.923 99.4318H710.355V145H694.559ZM728.65 118.295L743.196 145H726.037L711.832 118.295H728.65Z" fill="#1E1E1E"/>
</svg>
